<svg id="Layer_1" data-name="Layer 1" xmlns="http://www.w3.org/2000/svg" viewBox="0 0 50 50"><title>brain</title><path d="M23.636,1.368a7.337,7.337,0,0,0-3.38-.819,7.433,7.433,0,0,0-7.4,6.947q-.3-.026-.579-.026A7.415,7.415,0,0,0,6.462,19.489,7.414,7.414,0,0,0,7.3,33.1a7.406,7.406,0,0,0,5.375,11.692A8.467,8.467,0,0,0,23.605,48.8a.5.5,0,0,0,.3-.459V1.813A.5.5,0,0,0,23.636,1.368Zm-3.38,47.121a7.493,7.493,0,0,1-6.779-4.345,3.648,3.648,0,0,1,.189-2.387,3.905,3.905,0,0,1,3.353-2.148c.024.04.041.082.066.12A2.835,2.835,0,0,0,19,40.906a.5.5,0,1,0,.154-.988,1.863,1.863,0,0,1-1.233-.744,1.944,1.944,0,0,1,.16-2.219.5.5,0,0,0-.8-.6,3.1,3.1,0,0,0-.6,2.286,4.857,4.857,0,0,0-3.922,2.694,4.532,4.532,0,0,0-.363,2.414A6.382,6.382,0,0,1,8.377,33.37a6.067,6.067,0,0,0,3.094-.351,6.311,6.311,0,0,0,2.981-2.453,3.7,3.7,0,0,0,2.415.887,3.857,3.857,0,0,0,.718-.068A.5.5,0,0,0,17.4,30.4a2.755,2.755,0,0,1-2.662-.96h0a.521.521,0,0,0-.072-.06.485.485,0,0,0-.085-.066v0c-.012,0-.025,0-.037-.01a.31.31,0,0,0-.215-.035.519.519,0,0,0-.124.015.466.466,0,0,0-.085.046.492.492,0,0,0-.082.043l0,0a.581.581,0,0,0-.049.06.513.513,0,0,0-.075.1l0,0a5.411,5.411,0,0,1-2.792,2.555,5.253,5.253,0,0,1-2.851.257A6.4,6.4,0,0,1,7.2,20.264a5.5,5.5,0,0,0,2.994,1.26c.172.016.34.024.5.024a5.491,5.491,0,0,0,2.286-.5.5.5,0,1,0-.418-.908,4.413,4.413,0,0,1-2.276.393,4.527,4.527,0,0,1-2.653-1.212A6.414,6.414,0,0,1,12.28,8.47a6.478,6.478,0,0,1,.939.077,5.294,5.294,0,0,1,2.4,1.621,5.212,5.212,0,0,1,.892,1.624,3.719,3.719,0,0,0-1.6,2.009.5.5,0,0,0,.326.628.522.522,0,0,0,.151.023.5.5,0,0,0,.477-.348,2.692,2.692,0,0,1,1.461-1.612,2.648,2.648,0,0,1,1.976,0,.5.5,0,0,0,.381-.926,3.694,3.694,0,0,0-2.23-.163A6.117,6.117,0,0,0,13.848,7.72a6.424,6.424,0,0,1,6.408-6.171,6.324,6.324,0,0,1,2.652.578v19.85a6.83,6.83,0,0,0-2.378-.514A12.168,12.168,0,0,1,19.3,17.137a.516.516,0,0,0-.545-.451.5.5,0,0,0-.451.544,13.654,13.654,0,0,0,.544,2.721,13.324,13.324,0,0,0,.609,1.569,6.8,6.8,0,0,0-3.042,1.2.5.5,0,0,0,.291.906A.492.492,0,0,0,17,23.528a5.751,5.751,0,0,1,2.73-1.045c.164-.017.322-.023.478-.026h0l.01,0a5.841,5.841,0,0,1,2.689.617v12.92a2.6,2.6,0,0,1-1.524-.945,2.881,2.881,0,0,1,.095-3.342.5.5,0,0,0-.816-.576,3.834,3.834,0,0,0-.08,4.517,3.67,3.67,0,0,0,2.325,1.366V48A7.425,7.425,0,0,1,20.256,48.489Z"/><path d="M47.627,26.078a7.367,7.367,0,0,0-4.089-6.626A7.415,7.415,0,0,0,37.72,7.432c-.183,0-.372.008-.57.026a7.43,7.43,0,0,0-7.4-6.947,7.32,7.32,0,0,0-3.38.82.5.5,0,0,0-.272.444V48.3a.5.5,0,0,0,.3.459,8.466,8.466,0,0,0,10.928-4.006A7.407,7.407,0,0,0,42.7,33.062,7.393,7.393,0,0,0,47.627,26.078Zm-5.886,6.227a5.247,5.247,0,0,1-2.85-.255,5.387,5.387,0,0,1-2.718-2.421,3.08,3.08,0,0,0-.58-2.373.5.5,0,1,0-.8.6,1.941,1.941,0,0,1,.159,2.217,1.859,1.859,0,0,1-1.233.745.5.5,0,0,0,.076,1,.525.525,0,0,0,.079-.006,2.934,2.934,0,0,0,1.822-1.067,6.266,6.266,0,0,0,2.836,2.245,6.12,6.12,0,0,0,2.228.415,6.211,6.211,0,0,0,.865-.064,6.383,6.383,0,0,1-4.017,10.384,4.516,4.516,0,0,0-.363-2.415,4.782,4.782,0,0,0-3.392-2.608c.057-.061.127-.106.18-.171a.5.5,0,0,0-.772-.634,2.758,2.758,0,0,1-2.663.961.5.5,0,1,0-.189.982,3.849,3.849,0,0,0,.718.068,3.743,3.743,0,0,0,1.4-.269c.074-.03.136-.082.208-.116a.476.476,0,0,0,.188.049,3.918,3.918,0,0,1,3.416,2.156,3.644,3.644,0,0,1,.189,2.388,7.464,7.464,0,0,1-9.43,3.858V33.04a3.121,3.121,0,0,1,2.028.031A3.417,3.417,0,0,1,31.08,35.34a.5.5,0,0,0,.486.383.526.526,0,0,0,.117-.014.5.5,0,0,0,.369-.6,4.39,4.39,0,0,0-2.583-2.971,4.063,4.063,0,0,0-2.376-.127V24.339a2.541,2.541,0,0,1,1.837-1.862,2.727,2.727,0,0,1,2.357.664.5.5,0,0,0,.7-.713,3.708,3.708,0,0,0-3.294-.923,3.467,3.467,0,0,0-1.6.889V2.089a6.321,6.321,0,0,1,2.652-.578,6.429,6.429,0,0,1,6.4,6.174,6.169,6.169,0,0,0-2.533,1.8,6.276,6.276,0,0,0-1.065,1.859,3.149,3.149,0,0,0-.46-.2,3.651,3.651,0,0,0-2.2,0,.5.5,0,1,0,.3.952,2.677,2.677,0,0,1,1.584,0,1.733,1.733,0,0,1,1.094.923.5.5,0,0,0,.463.312.5.5,0,0,0,.462-.689A2.422,2.422,0,0,0,33.383,12a5.193,5.193,0,0,1,3.4-3.488,6.212,6.212,0,0,1,.941-.079,6.414,6.414,0,0,1,4.645,10.845,4.534,4.534,0,0,1-2.654,1.213,4.361,4.361,0,0,1-2.042-.3,3.149,3.149,0,0,0-.632-1.294.5.5,0,0,0-.768.641,2.058,2.058,0,0,1,.472,1.325,1.991,1.991,0,0,1-.364,1.11.5.5,0,0,0,.12.7.5.5,0,0,0,.289.092.5.5,0,0,0,.408-.211,3.006,3.006,0,0,0,.512-1.29,5.363,5.363,0,0,0,1.6.249c.163,0,.33-.008.5-.024a5.505,5.505,0,0,0,2.994-1.26,6.4,6.4,0,0,1-1.058,12.079Z"/></svg>