<svg id="Layer_1" data-name="Layer 1" xmlns="http://www.w3.org/2000/svg" viewBox="0 0 50 50"><title>pen-and-paper</title><path d="M49.73,7.125a.5.5,0,0,0-.236-.3L47.1,5.472a.5.5,0,0,0-.681.19l-1.107,1.96-.555-.314a.486.486,0,0,0-.38-.046.5.5,0,0,0-.3.236l-2.607,4.618h0L37.06,19.927V14.756a.484.484,0,0,0-.013-.064.47.47,0,0,0-.013-.063.484.484,0,0,0-.121-.226L23.342.833a.488.488,0,0,0-.228-.122A.56.56,0,0,0,23.055.7a.481.481,0,0,0-.066-.013H.752a.5.5,0,0,0-.5.5V48.814a.5.5,0,0,0,.5.5H36.56a.5.5,0,0,0,.5-.5V32.188L46.716,15.08h0l2.607-4.619a.5.5,0,0,0-.19-.681l-.555-.313,1.106-1.961A.5.5,0,0,0,49.73,7.125ZM1.252,48.314V1.686H22.489v13.07a.5.5,0,0,0,.5.5H36.06V21.7L25.5,40.416a.5.5,0,0,0-.046.379c0,.01.01.017.013.026l-.528,5.791a.5.5,0,0,0,.8.447L30.437,43.6a.479.479,0,0,0,.307-.22L36.06,33.96V48.314ZM23.489,14.256V2.393L35.353,14.256ZM26.032,45.6l.385-4.221,3.03,1.709Zm4.145-3.248L26.67,40.369,42.093,13.044,45.6,15.023ZM48.206,10.4l-2.115,3.748-3.507-1.979L44.7,8.425Zm-2.024-2.29.861-1.526,1.524.861-.86,1.525Z"/><path d="M6.182,10.22H19.377a.5.5,0,0,0,0-1H6.182a.5.5,0,0,0,0,1Z"/><path d="M6.182,19.924H29.774a.5.5,0,0,0,0-1H6.182a.5.5,0,0,0,0,1Z"/><path d="M6.182,25.9H29.774a.5.5,0,0,0,0-1H6.182a.5.5,0,1,0,0,1Z"/><path d="M21.536,41.668H6.182a.5.5,0,0,0,0,1H21.536a.5.5,0,0,0,0-1Z"/><path d="M25.134,31.7a.5.5,0,0,0-.5-.5H6.182a.5.5,0,0,0,0,1H24.634A.5.5,0,0,0,25.134,31.7Z"/></svg>