<svg id="Layer_1" data-name="Layer 1" xmlns="http://www.w3.org/2000/svg" viewBox="0 0 50 50"><title>ribbon</title><path d="M48.494,7.116a.5.5,0,0,0-.233-.3L37.791.767a.5.5,0,0,0-.683.183L26.91,18.613a13.99,13.99,0,0,0-3.82,0L12.892.95a.5.5,0,0,0-.683-.183L1.739,6.812a.5.5,0,0,0-.183.683L12.02,25.621a15.409,15.409,0,1,0,25.96,0L48.444,7.5A.5.5,0,0,0,48.494,7.116ZM25,48.3A14.409,14.409,0,1,1,39.409,33.891,14.426,14.426,0,0,1,25,48.3ZM12.276,1.884l9.753,16.892a15.3,15.3,0,0,0-4.979,1.94l-4.71-8.159a.5.5,0,1,0-.866.5l4.733,8.2a15.522,15.522,0,0,0-3.556,3.458L2.672,7.428ZM33.857,21.3l4.761-8.246a.5.5,0,0,0-.867-.5l-4.734,8.2a15.3,15.3,0,0,0-5.046-1.981L37.724,1.884l9.6,5.544L37.349,24.713A15.542,15.542,0,0,0,33.857,21.3Z"/><path d="M25,21.485A12.406,12.406,0,1,0,37.406,33.891,12.42,12.42,0,0,0,25,21.485ZM25,45.3A11.406,11.406,0,1,1,36.406,33.891,11.419,11.419,0,0,1,25,45.3Z"/><path d="M33.085,32.071a.5.5,0,0,0-.4-.344l-4.992-.762-2.2-4.545a.5.5,0,0,0-.447-.282h0a.5.5,0,0,0-.447.275l-2.268,4.512-5,.69a.5.5,0,0,0-.283.851l3.59,3.55-.89,4.971a.5.5,0,0,0,.722.533L24.949,39.2,29.4,41.585a.5.5,0,0,0,.236.059.5.5,0,0,0,.493-.581l-.817-4.983,3.642-3.5A.5.5,0,0,0,33.085,32.071Zm-4.654,3.47a.5.5,0,0,0-.147.442l.7,4.242L25.188,38.2a.5.5,0,0,0-.465,0L20.9,40.166l.758-4.232a.5.5,0,0,0-.14-.443l-3.058-3.024,4.26-.587a.5.5,0,0,0,.378-.271l1.931-3.841,1.874,3.869a.5.5,0,0,0,.375.276l4.25.65Z"/></svg>