<svg id="Layer_1" data-name="Layer 1" xmlns="http://www.w3.org/2000/svg" viewBox="0 0 50 50"><title>scales-of-justice</title><path d="M49.35,26.705H47.305L40.8,12.958h2.743a.5.5,0,0,0,.5-.5V9.407a.5.5,0,0,0-.5-.5H28.081a3.714,3.714,0,0,0-1.056-1.056V2.22a.5.5,0,0,0-.5-.5h-3.05a.5.5,0,0,0-.5.5V7.851a3.714,3.714,0,0,0-1.056,1.056H6.455a.5.5,0,0,0-.5.5v3.051a.5.5,0,0,0,.5.5H9.2L2.7,26.705H.65a.5.5,0,0,0-.5.5c0,4.173,4.4,7.57,9.805,7.57s9.805-3.4,9.805-7.57a.5.5,0,0,0-.5-.5H17.215l-6.5-13.747H21.919a3.717,3.717,0,0,0,1.056,1.057V40.043H20.343a2.216,2.216,0,0,0-2.213,2.213v.193a2.2,2.2,0,0,0,.366,1.213H16.15a2.216,2.216,0,0,0-2.213,2.213v.192A2.216,2.216,0,0,0,16.15,48.28h17.7a2.216,2.216,0,0,0,2.212-2.213v-.192a2.216,2.216,0,0,0-2.212-2.213H31.5a2.2,2.2,0,0,0,.366-1.213v-.193a2.216,2.216,0,0,0-2.213-2.213H27.025V14.015a3.717,3.717,0,0,0,1.056-1.057H39.288l-6.5,13.747H30.74a.5.5,0,0,0-.5.5c0,4.173,4.4,7.57,9.805,7.57s9.805-3.4,9.805-7.57A.5.5,0,0,0,49.35,26.705Zm-9.3,7.07c-4.63,0-8.436-2.681-8.779-6.07H48.824C48.48,31.094,44.675,33.775,40.045,33.775ZM25,13.625a2.693,2.693,0,1,1,2.692-2.692A2.7,2.7,0,0,1,25,13.625Zm5.87,28.631v.193a1.214,1.214,0,0,1-1.213,1.213H20.343a1.214,1.214,0,0,1-1.213-1.213v-.193a1.214,1.214,0,0,1,1.213-1.213h9.314A1.214,1.214,0,0,1,30.87,42.256Zm4.192,3.619v.192A1.213,1.213,0,0,1,33.85,47.28H16.15a1.214,1.214,0,0,1-1.213-1.213v-.192a1.214,1.214,0,0,1,1.213-1.213h17.7A1.213,1.213,0,0,1,35.062,45.875ZM23.975,40.043V14.463a3.324,3.324,0,0,0,2.05,0v25.58ZM9.955,33.775c-4.63,0-8.435-2.681-8.779-6.07H18.734C18.391,31.094,14.585,33.775,9.955,33.775ZM3.8,26.705,9.955,13.7l6.153,13.008ZM6.955,11.958V9.907H21.471a3.307,3.307,0,0,0,0,2.051ZM26.025,2.72V7.4a3.3,3.3,0,0,0-2.05,0V2.72Zm2.5,7.187H43.045v2.051H28.529a3.307,3.307,0,0,0,0-2.051Zm5.363,16.8L40.045,13.7,46.2,26.705Z"/></svg>