<svg data-name="Layer 1" xmlns="http://www.w3.org/2000/svg" viewBox="0 0 50 50"><path d="M41.042 8.1H25.084a8.944 8.944 0 00-8.647 9.2 9.739 9.739 0 00.148 1.659H8.958C4.19 18.956.311 23.1.311 28.2a9.033 9.033 0 007.867 9.2l3 4.293a.5.5 0 00.819 0l2.97-4.245h9.945c4.768 0 8.647-4.147 8.647-9.243a9.767 9.767 0 00-.154-1.705h1.62L38 30.715a.5.5 0 00.818 0l3-4.27a9 9 0 007.871-9.145 8.944 8.944 0 00-8.647-9.2zm.1 17.577l-2.73 3.88-2.712-3.851a.5.5 0 00-.409-.213h-2.1a8.754 8.754 0 00-8.268-6.537H17.6a8.706 8.706 0 01-.158-1.659 7.945 7.945 0 017.647-8.2h15.953a7.945 7.945 0 017.647 8.2 7.981 7.981 0 01-7.175 8.17.5.5 0 00-.376.211zM32.563 28.2c0 4.545-3.43 8.243-7.647 8.243h-10.2a.5.5 0 00-.409.213l-2.71 3.873-2.729-3.9a.5.5 0 00-.377-.212 8.012 8.012 0 01-7.18-8.217c0-4.545 3.43-8.242 7.647-8.242h15.958c4.217-.002 7.647 3.695 7.647 8.242z"/></svg>