<svg data-name="Layer 1" xmlns="http://www.w3.org/2000/svg" viewBox="0 0 50 50"><path d="M23.636 1.368a7.337 7.337 0 00-3.38-.819 7.433 7.433 0 00-7.4 6.947q-.3-.026-.579-.026a7.415 7.415 0 00-5.815 12.019A7.414 7.414 0 007.3 33.1a7.406 7.406 0 005.375 11.692 8.467 8.467 0 0010.93 4.008.5.5 0 00.3-.459V1.813a.5.5 0 00-.269-.445zm-3.38 47.121a7.493 7.493 0 01-6.779-4.345 3.648 3.648 0 01.189-2.387 3.905 3.905 0 013.353-2.148c.024.04.041.082.066.12A2.835 2.835 0 0019 40.906a.5.5 0 10.154-.988 1.863 1.863 0 01-1.233-.744 1.944 1.944 0 01.16-2.219.5.5 0 00-.8-.6 3.1 3.1 0 00-.6 2.286 4.857 4.857 0 00-3.922 2.694 4.532 4.532 0 00-.363 2.414A6.382 6.382 0 018.377 33.37a6.067 6.067 0 003.094-.351 6.311 6.311 0 002.981-2.453 3.7 3.7 0 002.415.887 3.857 3.857 0 00.718-.068.5.5 0 00-.185-.985 2.755 2.755 0 01-2.662-.96.521.521 0 00-.072-.06.485.485 0 00-.085-.066c-.012 0-.025 0-.037-.01a.31.31 0 00-.215-.035.519.519 0 00-.124.015.466.466 0 00-.085.046.492.492 0 00-.082.043.581.581 0 00-.049.06.513.513 0 00-.075.1 5.411 5.411 0 01-2.792 2.555 5.253 5.253 0 01-2.851.257A6.4 6.4 0 017.2 20.264a5.5 5.5 0 002.994 1.26c.172.016.34.024.5.024a5.491 5.491 0 002.286-.5.5.5 0 10-.418-.908 4.413 4.413 0 01-2.276.393 4.527 4.527 0 01-2.653-1.212A6.414 6.414 0 0112.28 8.47a6.478 6.478 0 01.939.077 5.294 5.294 0 012.4 1.621 5.212 5.212 0 01.892 1.624 3.719 3.719 0 00-1.6 2.009.5.5 0 00.326.628.522.522 0 00.151.023.5.5 0 00.477-.348 2.692 2.692 0 011.461-1.612 2.648 2.648 0 011.976 0 .5.5 0 00.381-.926 3.694 3.694 0 00-2.23-.163 6.117 6.117 0 00-3.605-3.683 6.424 6.424 0 016.408-6.171 6.324 6.324 0 012.652.578v19.85a6.83 6.83 0 00-2.378-.514 12.168 12.168 0 01-1.23-4.326.516.516 0 00-.545-.451.5.5 0 00-.451.544 13.654 13.654 0 00.544 2.721 13.324 13.324 0 00.609 1.569 6.8 6.8 0 00-3.042 1.2.5.5 0 00.291.906.492.492 0 00.294-.098 5.751 5.751 0 012.73-1.045c.164-.017.322-.023.478-.026h.01a5.841 5.841 0 012.689.617v12.92a2.6 2.6 0 01-1.524-.945 2.881 2.881 0 01.095-3.342.5.5 0 00-.816-.576 3.834 3.834 0 00-.08 4.517 3.67 3.67 0 002.325 1.366V48a7.425 7.425 0 01-2.651.489zm27.371-22.411a7.367 7.367 0 00-4.089-6.626 7.415 7.415 0 00-5.818-12.02c-.183 0-.372.008-.57.026a7.43 7.43 0 00-7.4-6.947 7.32 7.32 0 00-3.38.82.5.5 0 00-.272.444V48.3a.5.5 0 00.3.459 8.466 8.466 0 0010.928-4.006A7.407 7.407 0 0042.7 33.062a7.393 7.393 0 004.927-6.984zm-5.886 6.227a5.247 5.247 0 01-2.85-.255 5.387 5.387 0 01-2.718-2.421 3.08 3.08 0 00-.58-2.373.5.5 0 10-.8.6 1.941 1.941 0 01.159 2.217 1.859 1.859 0 01-1.233.745.5.5 0 00.076 1 .525.525 0 00.079-.006 2.934 2.934 0 001.822-1.067 6.266 6.266 0 002.836 2.245 6.12 6.12 0 002.228.415 6.211 6.211 0 00.865-.064 6.383 6.383 0 01-4.017 10.384 4.516 4.516 0 00-.363-2.415 4.782 4.782 0 00-3.392-2.608c.057-.061.127-.106.18-.171a.5.5 0 00-.772-.634 2.758 2.758 0 01-2.663.961.5.5 0 10-.189.982 3.849 3.849 0 00.718.068 3.743 3.743 0 001.4-.269c.074-.03.136-.082.208-.116a.476.476 0 00.188.049 3.918 3.918 0 013.416 2.156 3.644 3.644 0 01.189 2.388 7.464 7.464 0 01-9.43 3.858V33.04a3.121 3.121 0 012.028.031 3.417 3.417 0 011.954 2.269.5.5 0 00.486.383.526.526 0 00.117-.014.5.5 0 00.369-.6 4.39 4.39 0 00-2.583-2.971 4.063 4.063 0 00-2.376-.127v-7.672a2.541 2.541 0 011.837-1.862 2.727 2.727 0 012.357.664.5.5 0 00.7-.713 3.708 3.708 0 00-3.294-.923 3.467 3.467 0 00-1.6.889V2.089a6.321 6.321 0 012.652-.578 6.429 6.429 0 016.4 6.174 6.169 6.169 0 00-2.533 1.8 6.276 6.276 0 00-1.065 1.859 3.149 3.149 0 00-.46-.2 3.651 3.651 0 00-2.2 0 .5.5 0 10.3.952 2.677 2.677 0 011.584 0 1.733 1.733 0 011.094.923.5.5 0 00.463.312.5.5 0 00.462-.689 2.422 2.422 0 00-.407-.642 5.193 5.193 0 013.4-3.488 6.212 6.212 0 01.941-.079 6.414 6.414 0 014.645 10.845 4.534 4.534 0 01-2.654 1.213 4.361 4.361 0 01-2.042-.3 3.149 3.149 0 00-.632-1.294.5.5 0 00-.768.641 2.058 2.058 0 01.472 1.325 1.991 1.991 0 01-.364 1.11.5.5 0 00.12.7.5.5 0 00.289.092.5.5 0 00.408-.211 3.006 3.006 0 00.512-1.29 5.363 5.363 0 001.6.249c.163 0 .33-.008.5-.024a5.505 5.505 0 002.994-1.26 6.4 6.4 0 01-1.058 12.079z"/></svg>