<svg data-name="Layer 1" xmlns="http://www.w3.org/2000/svg" viewBox="0 0 50 50"><path d="M42.146 4.98h-7.731a2.9 2.9 0 00-2.8-2.154h-3.677a2.832 2.832 0 00-5.575 0h-3.681a2.9 2.9 0 00-2.8 2.154H7.854a.5.5 0 00-.5.5v43.525a.5.5 0 00.5.5h34.292a.5.5 0 00.5-.5V5.48a.5.5 0 00-.5-.5zM18.682 3.826h4.137a.5.5 0 00.5-.5 1.832 1.832 0 013.663 0 .5.5 0 00.5.5h4.137a1.909 1.909 0 011.907 1.907v1.031H16.775V5.733a1.909 1.909 0 011.907-1.907zm22.964 44.679H8.354V5.98h7.421v1.284a.5.5 0 00.5.5h17.751a.5.5 0 00.5-.5V5.98h7.12z"/><path d="M19.8 12.2a.5.5 0 00-.684.18l-.567.968-4 6.835-2.044-2.5-.02-.025a.5.5 0 10-.774.633l2.519 3.084a.5.5 0 00.387.184h.039a.5.5 0 00.393-.246l4.927-8.425a.5.5 0 00-.176-.688zm-.073 11.14a.5.5 0 00-.684.18l-.566.967-4 6.835-2.044-2.5-.02-.024a.5.5 0 00-.775.633l2.52 3.084a.5.5 0 00.388.183h.039a.5.5 0 00.392-.246l4.927-8.425a.5.5 0 00-.177-.687zm3.936-7.985a.5.5 0 000 1h14.542a.5.5 0 000-1zm14.474 13.128a.5.5 0 000-1H23.6a.5.5 0 000 1zM23.885 39.952a.5.5 0 000 1h14.542a.5.5 0 000-1zm-5.167-2.967h-5.934a.5.5 0 00-.5.5v5.935a.5.5 0 00.5.5h5.934a.5.5 0 00.5-.5v-5.935a.5.5 0 00-.5-.5zm-.5 5.935h-4.934v-4.935h4.934z"/></svg>