<svg data-name="Layer 1" xmlns="http://www.w3.org/2000/svg" viewBox="0 0 50 50"><path d="M43.543.914A.532.532 0 0043.521.8a.505.505 0 00-.067-.1.394.394 0 00-.035-.055.5.5 0 00-.131-.091.29.29 0 00-.033-.024.44.44 0 00-.065-.015.5.5 0 00-.126-.025h-7.221a.5.5 0 000 1h5.97l-9.446 9.043a15.48 15.48 0 10-10.928 26.9v7.226h-4.631a.5.5 0 000 1h4.629v3.353a.5.5 0 001 0v-3.354h4.63a.5.5 0 000-1h-4.63v-7.226a15.463 15.463 0 0010.649-26.2l9.472-9.072v5.708a.5.5 0 101 0V.989a.474.474 0 00-.015-.075zM21.937 36.457a14.5 14.5 0 1114.5-14.495 14.512 14.512 0 01-14.5 14.495z"/><path d="M29.216 18.8H14.659a.5.5 0 000 1h14.557a.5.5 0 000-1zm0 5.32H14.659a.5.5 0 000 1h14.557a.5.5 0 000-1z"/></svg>