<svg data-name="Layer 1" xmlns="http://www.w3.org/2000/svg" viewBox="0 0 50 50"><path d="M46.219 23.422a5.68 5.68 0 00-7.375-8.346 4.843 4.843 0 00-1.319-.51 4.553 4.553 0 10-8.121 0 4.836 4.836 0 00-.9.292 6.541 6.541 0 00-7.274.119 4.808 4.808 0 00-1.149-.411 4.553 4.553 0 10-8.122 0 4.848 4.848 0 00-1.069.364 5.681 5.681 0 00-7.106 8.492 5.066 5.066 0 00-3.668 4.864v9.486a.5.5 0 00.5.5h14.812v3.245a.5.5 0 00.5.5h18.054a.5.5 0 00.5-.5v-3.245h14.9a.5.5 0 00.5-.5v-9.486a5.066 5.066 0 00-3.663-4.864zm2.665 13.85H46.37V29.2a.5.5 0 00-1 0v8.077h-7.332V29.2a.5.5 0 00-1 0v8.077h-2.556v-8.991a4.068 4.068 0 013.46-4.016c.025.022.047.047.073.069a5.679 5.679 0 007.337 0c.025-.022.047-.047.073-.069a4.067 4.067 0 013.459 4.016zM12.5 28.7a.5.5 0 00-.5.5v8.077H4.671V29.2a.5.5 0 00-1 0v8.077H1.116v-8.991a4.067 4.067 0 013.459-4.016c.026.022.048.047.073.069a5.677 5.677 0 007.336 0c.026-.022.048-.047.074-.069a4.067 4.067 0 013.459 4.016v1.12a5.89 5.89 0 00-.089.991v6.875H13V29.2a.5.5 0 00-.5-.5zm7.07-16.164a3.549 3.549 0 01-1.262 2.713 3.637 3.637 0 01-4.582 0 3.552 3.552 0 115.844-2.713zm-6.489 3.476a4.545 4.545 0 005.873 0 4.6 4.6 0 00.514-.541 3.927 3.927 0 01.891.221 6.547 6.547 0 00-.378 8.99 5.865 5.865 0 00-3.594 2.5 5.066 5.066 0 00-3.535-3.76 5.676 5.676 0 00-.937-7.825 3.965 3.965 0 01.651-.126 4.532 4.532 0 00.515.541zm23.937-3.476a3.549 3.549 0 01-1.262 2.713 3.64 3.64 0 01-4.583 0 3.552 3.552 0 115.845-2.713zm-6.49 3.476a4.426 4.426 0 006.388-.541 3.91 3.91 0 011.009.268 5.668 5.668 0 00-.777 7.683 5.07 5.07 0 00-3.564 3.857 5.866 5.866 0 00-3.654-2.6 6.541 6.541 0 00-.5-9.1 4.128 4.128 0 01.582-.112 4.445 4.445 0 00.516.545zm-.665 14.95a.5.5 0 00-.5.5v9.555H20.6v-9.555a.5.5 0 00-1 0v9.555h-3.172V30.4a4.866 4.866 0 014.442-4.849c.115.091.245.157.366.239.176.122.348.247.533.35.043.022.088.039.13.061a6.413 6.413 0 006.114 0c.042-.022.087-.038.129-.06.186-.1.358-.229.534-.35.12-.082.25-.148.365-.239a4.865 4.865 0 014.441 4.848v10.62h-3.119v-9.558a.5.5 0 00-.5-.5zm14.843-7.387a4.8 4.8 0 01-6.045 0 4.688 4.688 0 116.045 0zm-14.17-3.182a5.57 5.57 0 01-1.982 4.261 5.714 5.714 0 01-7.2 0 5.58 5.58 0 119.18-4.261zM13 20a4.682 4.682 0 01-1.664 3.579 4.8 4.8 0 01-6.045 0A4.686 4.686 0 1113 20z"/></svg>