<svg data-name="Layer 1" xmlns="http://www.w3.org/2000/svg" viewBox="0 0 50 50"><path d="M37.657 45.561H30.73v-.985a15.154 15.154 0 001.891-28.433l.882-1.356c.006-.008.016-.011.021-.019s.007-.023.013-.033l2.228-3.427a.5.5 0 00-.147-.692L34.2 9.691l1.047-1.61 1.355.881a1.921 1.921 0 102.094-3.221L30.725.561a1.921 1.921 0 10-2.094 3.221l1.354.881-1.046 1.61-1.423-.925a.5.5 0 00-.691.146L24.6 8.918c-.009.011-.021.017-.028.028s-.008.025-.015.037l-5.487 8.438c-.008.01-.019.016-.027.027s-.008.025-.014.036l-2.62 4.03a.5.5 0 00.146.691l1.867 1.214-1.7 2.62a.5.5 0 00.146.692l3.532 2.295a.5.5 0 00.273.082.515.515 0 00.1-.011.505.505 0 00.316-.217l1.7-2.62 1.867 1.214a.5.5 0 00.272.081.517.517 0 00.1-.011.5.5 0 00.316-.217l2.624-4.036c.006-.008.017-.012.022-.02a.224.224 0 00.014-.036l1.182-1.817a9 9 0 01.295 17.1 3.922 3.922 0 00-5.555.127 8.94 8.94 0 01-4.575-3.2h1.487a1.675 1.675 0 100-3.349H9.994a1.675 1.675 0 000 3.349h2.362a15.222 15.222 0 0010.464 9.28v.84h-6.927a.5.5 0 00-.5.5v3.185a.5.5 0 00.5.5h21.764a.5.5 0 00.5-.5v-3.189a.5.5 0 00-.5-.5zM29.176 2.944a.921.921 0 111-1.545l7.967 5.18a.921.921 0 11-1 1.545zm1.622 2.3l3.581 2.329-1 1.54L29.8 6.788zM27.39 6.458l7.264 4.724-1.7 2.618-7.266-4.723zm-6.868 21.458l-2.693-1.751 1.4-2.16 2.693 1.751zm4.262-1.553L17.52 21.64l2.095-3.223 7.264 4.723zm2.64-4.061l-7.264-4.723 4.983-7.664 7.264 4.723zm9.1 7.711a10.051 10.051 0 00-6.659-9.431l2.344-3.539a14.17 14.17 0 01-1.48 26.5v-2.165a3.92 3.92 0 00-.585-2.041 10.027 10.027 0 006.381-9.324zm-9.75 8.41a2.958 2.958 0 012.955 2.955l.039 4.183H23.82v-4.183a2.958 2.958 0 012.955-2.955zm-16.78-3.982a.675.675 0 010-1.349h10.85a.675.675 0 110 1.349zm3.455 1.059h4.711a9.972 9.972 0 005.16 3.99 3.9 3.9 0 00-.5 1.886v2.307a14.228 14.228 0 01-9.371-8.183zm23.708 13.25H16.393v-2.189h20.764z"/></svg>