<svg data-name="Layer 1" xmlns="http://www.w3.org/2000/svg" viewBox="0 0 50 50"><path d="M49.73 7.125a.5.5 0 00-.236-.3L47.1 5.472a.5.5 0 00-.681.19l-1.107 1.96-.555-.314a.486.486 0 00-.38-.046.5.5 0 00-.3.236l-2.607 4.618-4.41 7.811v-5.171a.484.484 0 00-.013-.064.47.47 0 00-.013-.063.484.484 0 00-.121-.226L23.342.833a.488.488 0 00-.228-.122.56.56 0 00-.059-.011.481.481 0 00-.066-.013H.752a.5.5 0 00-.5.5v47.627a.5.5 0 00.5.5H36.56a.5.5 0 00.5-.5V32.188l9.656-17.108 2.607-4.619a.5.5 0 00-.19-.681l-.555-.313 1.106-1.961a.5.5 0 00.046-.381zM1.252 48.314V1.686h21.237v13.07a.5.5 0 00.5.5H36.06V21.7L25.5 40.416a.5.5 0 00-.046.379c0 .01.01.017.013.026l-.528 5.791a.5.5 0 00.8.447l4.698-3.459a.479.479 0 00.307-.22l5.316-9.42v14.354zm22.237-34.058V2.393l11.864 11.863zM26.032 45.6l.385-4.221 3.03 1.709zm4.145-3.248l-3.507-1.983 15.423-27.325 3.507 1.979zM48.206 10.4l-2.115 3.748-3.507-1.979L44.7 8.425zm-2.024-2.29l.861-1.526 1.524.861-.86 1.525z"/><path d="M6.182 10.22h13.195a.5.5 0 000-1H6.182a.5.5 0 000 1zm0 9.704h23.592a.5.5 0 000-1H6.182a.5.5 0 000 1zm0 5.976h23.592a.5.5 0 000-1H6.182a.5.5 0 100 1zm15.354 15.768H6.182a.5.5 0 000 1h15.354a.5.5 0 000-1zm3.598-9.968a.5.5 0 00-.5-.5H6.182a.5.5 0 000 1h18.452a.5.5 0 00.5-.5z"/></svg>