<svg id="Layer_1" data-name="Layer 1" xmlns="http://www.w3.org/2000/svg" viewBox="0 0 50 50"><title>2-speech-bubbles</title><path d="M41.042,8.1H25.084a8.944,8.944,0,0,0-8.647,9.2,9.739,9.739,0,0,0,.148,1.659H8.958C4.19,18.956.311,23.1.311,28.2a9.033,9.033,0,0,0,7.867,9.2l3,4.293a.5.5,0,0,0,.819,0l2.97-4.245h9.945c4.768,0,8.647-4.147,8.647-9.243a9.767,9.767,0,0,0-.154-1.705h1.62L38,30.715a.5.5,0,0,0,.818,0l3-4.27A9,9,0,0,0,49.689,17.3,8.944,8.944,0,0,0,41.042,8.1Zm.1,17.577-2.73,3.88L35.7,25.706a.5.5,0,0,0-.409-.213h-2.1a8.754,8.754,0,0,0-8.268-6.537H17.6a8.706,8.706,0,0,1-.158-1.659,7.945,7.945,0,0,1,7.647-8.2H41.042a7.945,7.945,0,0,1,7.647,8.2,7.981,7.981,0,0,1-7.175,8.17A.5.5,0,0,0,41.138,25.678ZM32.563,28.2c0,4.545-3.43,8.243-7.647,8.243h-10.2a.5.5,0,0,0-.409.213l-2.71,3.873-2.729-3.9a.5.5,0,0,0-.377-.212A8.012,8.012,0,0,1,1.311,28.2c0-4.545,3.43-8.242,7.647-8.242H24.916C29.133,19.956,32.563,23.653,32.563,28.2Z"/></svg>