<svg id="Layer_1" data-name="Layer 1" xmlns="http://www.w3.org/2000/svg" viewBox="0 0 50 50"><title>checklist</title><path d="M42.146,4.98H34.415a2.9,2.9,0,0,0-2.8-2.154H27.938a2.832,2.832,0,0,0-5.575,0H18.682a2.9,2.9,0,0,0-2.8,2.154H7.854a.5.5,0,0,0-.5.5V49.005a.5.5,0,0,0,.5.5H42.146a.5.5,0,0,0,.5-.5V5.48A.5.5,0,0,0,42.146,4.98ZM18.682,3.826h4.137a.5.5,0,0,0,.5-.5,1.832,1.832,0,0,1,3.663,0,.5.5,0,0,0,.5.5h4.137a1.909,1.909,0,0,1,1.907,1.907V6.764H16.775V5.733A1.909,1.909,0,0,1,18.682,3.826ZM41.646,48.505H8.354V5.98h7.421V7.264a.5.5,0,0,0,.5.5H34.026a.5.5,0,0,0,.5-.5V5.98h7.12Z"/><path d="M19.8,12.2a.5.5,0,0,0-.684.18l-.567.968-4,6.835-2.044-2.5-.02-.025a.5.5,0,1,0-.774.633l2.519,3.084a.5.5,0,0,0,.387.184l.039,0a.5.5,0,0,0,.393-.246l4.927-8.425A.5.5,0,0,0,19.8,12.2Z"/><path d="M19.727,23.34a.5.5,0,0,0-.684.18l-.566.967-4,6.835-2.044-2.5-.02-.024a.5.5,0,0,0-.775.633l2.52,3.084a.5.5,0,0,0,.388.183l.039,0a.5.5,0,0,0,.392-.246l4.927-8.425A.5.5,0,0,0,19.727,23.34Z"/><path d="M23.663,15.355a.5.5,0,0,0,0,1H38.205a.5.5,0,0,0,0-1Z"/><path d="M38.137,28.483a.5.5,0,0,0,0-1H23.6a.5.5,0,0,0,0,1Z"/><path d="M23.885,39.952a.5.5,0,0,0,0,1H38.427a.5.5,0,0,0,0-1Z"/><path d="M18.718,36.985H12.784a.5.5,0,0,0-.5.5V43.42a.5.5,0,0,0,.5.5h5.934a.5.5,0,0,0,.5-.5V37.485A.5.5,0,0,0,18.718,36.985Zm-.5,5.935H13.284V37.985h4.934Z"/></svg>