<svg id="Layer_1" data-name="Layer 1" xmlns="http://www.w3.org/2000/svg" viewBox="0 0 50 50"><title>gender-equality</title><path d="M43.543.914A.532.532,0,0,0,43.521.8.505.505,0,0,0,43.454.7a.394.394,0,0,0-.035-.055l0,0a.5.5,0,0,0-.131-.091A.29.29,0,0,0,43.255.53.44.44,0,0,0,43.19.515.5.5,0,0,0,43.064.49H35.843a.5.5,0,0,0,0,1h5.97l-9.446,9.043,0,0a15.48,15.48,0,1,0-10.928,26.9v7.226H16.808a.5.5,0,0,0,0,1h4.629v3.353a.5.5,0,0,0,1,0V45.658h4.63a.5.5,0,0,0,0-1h-4.63V37.432a15.463,15.463,0,0,0,10.649-26.2L42.558,2.16V7.868a.5.5,0,1,0,1,0V.989A.474.474,0,0,0,43.543.914ZM21.937,36.457a14.5,14.5,0,1,1,14.5-14.495A14.512,14.512,0,0,1,21.937,36.457Z"/><path d="M29.216,18.8H14.659a.5.5,0,0,0,0,1H29.216a.5.5,0,0,0,0-1Z"/><path d="M29.216,24.12H14.659a.5.5,0,0,0,0,1H29.216a.5.5,0,0,0,0-1Z"/></svg>