<svg id="Layer_1" data-name="Layer 1" xmlns="http://www.w3.org/2000/svg" viewBox="0 0 50 50"><title>graduate</title><path d="M43.043,5.363,25.341.383a.492.492,0,0,0-.269,0L8.525,5a.5.5,0,0,0,0,.962l8.949,2.6V7.52L10.486,5.494l14.72-4.111L40.891,5.8,34.1,7.362V8.388l3.352-.773v5.867a.752.752,0,0,0-.185,1h-.116v2.436h1.6V14.485h-.117a.776.776,0,0,0,.117-.392.785.785,0,0,0-.3-.611V7.527a.476.476,0,0,0-.027-.136l4.6-1.059a.5.5,0,0,0,.023-.969Z"/><path d="M34.1,6.3a.5.5,0,0,0-.371-.483A30.767,30.767,0,0,0,25.8,4.777h-.019a30.8,30.8,0,0,0-7.943,1.042.5.5,0,0,0-.371.483V11.75a.489.489,0,0,0,.057.226,9.572,9.572,0,0,0,1.181,11.471,8.821,8.821,0,0,0-4.818,2.427.5.5,0,0,0-.147.4.489.489,0,0,0,.14.285,8.521,8.521,0,0,0-2.165,5.681v16.71a.5.5,0,0,0,.5.5H39.349a.5.5,0,0,0,.5-.5V32.243a8.53,8.53,0,0,0-2.106-5.615.481.481,0,0,0,.142-.281.5.5,0,0,0-.143-.407,8.822,8.822,0,0,0-2.235-1.63h0a8.819,8.819,0,0,0-2.647-.862,9.576,9.576,0,0,0,1.181-11.471.5.5,0,0,0,.057-.226V6.3ZM31.354,23.516A8.632,8.632,0,0,1,18.6,12.131a33.919,33.919,0,0,1,7.063-.781,33.379,33.379,0,0,1,7.3.782,8.618,8.618,0,0,1-1.612,11.384ZM18.981,48.453V44.222l.221.178a.5.5,0,0,0,.628,0L22.5,42.248a.5.5,0,0,0,.186-.39V32.47l2.681,1.79a.5.5,0,0,0,.549.005l3.046-1.959v9.552a.5.5,0,0,0,.187.39L31.811,44.4a.5.5,0,0,0,.628,0l.22-.178v4.231ZM17.349,28.907,21.682,31.8V41.62l-2.166,1.748L17.349,41.62ZM32.125,43.368,29.958,41.62V31.663l4.334-2.785V41.62ZM25.646,33.247l-10.6-7.078a7.837,7.837,0,0,1,4.295-1.8l6.053,3.5a.5.5,0,0,0,.5,0L29.5,25.8a9.647,9.647,0,0,0,2.108-1.218L32,24.354a7.833,7.833,0,0,1,4.572,1.868ZM25.6,26.839c.031,0,.063,0,.094,0l-.044.025Zm-12.881,5.4a7.538,7.538,0,0,1,1.983-5.1l1.648,1.1V41.858a.5.5,0,0,0,.186.39l1.446,1.167v5.038H12.718Zm26.131,16.21h-5.19V43.415l1.447-1.167a.5.5,0,0,0,.186-.39V28.235l1.621-1.042a7.538,7.538,0,0,1,1.936,5.05ZM33.1,11.125a34.89,34.89,0,0,0-14.628,0V6.688a29.824,29.824,0,0,1,7.314-.911H25.8a29.812,29.812,0,0,1,7.3.911Z"/></svg>