<svg id="Layer_1" data-name="Layer 1" xmlns="http://www.w3.org/2000/svg" viewBox="0 0 50 50"><title>group-of-5</title><path d="M46.219,23.422a5.68,5.68,0,0,0-7.375-8.346,4.843,4.843,0,0,0-1.319-.51,4.553,4.553,0,1,0-8.121,0,4.836,4.836,0,0,0-.9.292,6.541,6.541,0,0,0-7.274.119,4.808,4.808,0,0,0-1.149-.411,4.553,4.553,0,1,0-8.122,0,4.848,4.848,0,0,0-1.069.364,5.681,5.681,0,0,0-7.106,8.492A5.066,5.066,0,0,0,.116,28.286v9.486a.5.5,0,0,0,.5.5H15.428v3.245a.5.5,0,0,0,.5.5H33.982a.5.5,0,0,0,.5-.5V38.272h14.9a.5.5,0,0,0,.5-.5V28.286A5.066,5.066,0,0,0,46.219,23.422Zm2.665,13.85H46.37V29.2a.5.5,0,0,0-1,0v8.077H38.038V29.2a.5.5,0,0,0-1,0v8.077H34.482V28.286a4.068,4.068,0,0,1,3.46-4.016c.025.022.047.047.073.069a5.679,5.679,0,0,0,7.337,0c.025-.022.047-.047.073-.069a4.067,4.067,0,0,1,3.459,4.016ZM12.5,28.7a.5.5,0,0,0-.5.5v8.077H4.671V29.2a.5.5,0,0,0-1,0v8.077H1.116V28.286A4.067,4.067,0,0,1,4.575,24.27c.026.022.048.047.073.069a5.677,5.677,0,0,0,7.336,0c.026-.022.048-.047.074-.069a4.067,4.067,0,0,1,3.459,4.016v1.12a5.89,5.89,0,0,0-.089.991v6.875H13V29.2A.5.5,0,0,0,12.5,28.7ZM19.57,12.536a3.549,3.549,0,0,1-1.262,2.713,3.637,3.637,0,0,1-4.582,0,3.552,3.552,0,1,1,5.844-2.713Zm-6.489,3.476a4.545,4.545,0,0,0,5.873,0,4.6,4.6,0,0,0,.514-.541,3.927,3.927,0,0,1,.891.221,6.547,6.547,0,0,0-.378,8.99,5.865,5.865,0,0,0-3.594,2.5,5.066,5.066,0,0,0-3.535-3.76,5.676,5.676,0,0,0-.937-7.825,3.965,3.965,0,0,1,.651-.126A4.532,4.532,0,0,0,13.081,16.012Zm23.937-3.476a3.549,3.549,0,0,1-1.262,2.713,3.64,3.64,0,0,1-4.583,0,3.552,3.552,0,1,1,5.845-2.713Zm-6.49,3.476a4.426,4.426,0,0,0,6.388-.541,3.91,3.91,0,0,1,1.009.268,5.668,5.668,0,0,0-.777,7.683,5.07,5.07,0,0,0-3.564,3.857,5.866,5.866,0,0,0-3.654-2.6,6.541,6.541,0,0,0-.5-9.1,4.128,4.128,0,0,1,.582-.112A4.445,4.445,0,0,0,30.528,16.012Zm-.665,14.95a.5.5,0,0,0-.5.5v9.555H20.6V31.462a.5.5,0,0,0-1,0v9.555H16.428V30.4a4.866,4.866,0,0,1,4.442-4.849c.115.091.245.157.366.239.176.122.348.247.533.35.043.022.088.039.13.061a6.413,6.413,0,0,0,6.114,0c.042-.022.087-.038.129-.06.186-.1.358-.229.534-.35.12-.082.25-.148.365-.239A4.865,4.865,0,0,1,33.482,30.4v10.62H30.363V31.462A.5.5,0,0,0,29.863,30.962Zm14.843-7.387a4.8,4.8,0,0,1-6.045,0,4.688,4.688,0,1,1,6.045,0Zm-14.17-3.182a5.57,5.57,0,0,1-1.982,4.261,5.714,5.714,0,0,1-7.2,0,5.58,5.58,0,1,1,9.18-4.261ZM13,20a4.682,4.682,0,0,1-1.664,3.579,4.8,4.8,0,0,1-6.045,0A4.686,4.686,0,1,1,13,20Z"/></svg>