<svg id="Layer_1" data-name="Layer 1" xmlns="http://www.w3.org/2000/svg" viewBox="0 0 50 50"><title>handshake</title><path d="M49.675,16.582l-9.43-9.429a.5.5,0,0,0-.707,0L28.014,18.677a.489.489,0,0,0-.126.46,5.347,5.347,0,0,0-3.063,1.406l-.027-.025a3.768,3.768,0,0,0-2.752-1.049.491.491,0,0,0-.028-.688L10.243,7.512a.588.588,0,0,0-.356-.138.5.5,0,0,0-.351.154L.317,17.162a.5.5,0,0,0,.016.707L12.107,29.138a.5.5,0,0,0,.346.139h.011a.5.5,0,0,0,.32-.133c0,.053-.01.1-.008.158a3.778,3.778,0,0,0,1.177,2.548l.259.248a2.147,2.147,0,0,0,.478,2.456,2.017,2.017,0,0,0,1.765.574c0,.072-.018.142-.016.216a2.174,2.174,0,0,0,2.172,2.122h.053c.073,0,.142-.018.214-.026A2.093,2.093,0,0,0,21.3,39.749a2.158,2.158,0,0,0,2.155,2.339h.053a2.154,2.154,0,0,0,.9-.227l.459.439a2.483,2.483,0,0,0,1.714.694,2.265,2.265,0,0,0,2.25-2.671,2.3,2.3,0,0,0,1.946-.68,2.268,2.268,0,0,0,.625-1.7c0-.093-.015-.184-.029-.275.091.01.183.016.276.017a2.347,2.347,0,0,0,1.668-.7,2.269,2.269,0,0,0,.627-1.633,2.429,2.429,0,0,0-.031-.342,2.292,2.292,0,0,0,1.944-.68,2.265,2.265,0,0,0,.625-1.7,2.456,2.456,0,0,0-.209-.867l.149-.149a4.136,4.136,0,0,0,1.188-2.695.49.49,0,0,0,.183.037.5.5,0,0,0,.353-.147L49.675,17.289a.5.5,0,0,0,0-.707ZM37.8,27.754l-8.723-8.723L39.891,8.214l8.723,8.722Zm-2.076,3.157-.109.107c-2.829-2.792-7.924-7.819-8.032-7.924a.5.5,0,0,0-.343-.157h-.03a.455.455,0,0,0-.348.18c-.119.127-1.771,1.724-2.851,2.765a1.2,1.2,0,0,1-.834.322,1.168,1.168,0,0,1-.783-2.011l2.762-2.635c.015-.01.076-.057.089-.069.808-.741,2.2-1.694,3.64-1.237L36.53,27.9A3.185,3.185,0,0,1,35.721,30.911Zm-.234,1.773a1.277,1.277,0,0,1-.348.958,1.387,1.387,0,0,1-1.957-.029l-3.032-2.9-.384-.354-.66.754,3.378,3.232a1.474,1.474,0,0,1,.465,1.034,1.281,1.281,0,0,1-.35.919,1.423,1.423,0,0,1-.941.39,1.482,1.482,0,0,1-1.016-.419l-3.032-2.9-.385-.354-.659.754L29.944,37a1.477,1.477,0,0,1,.463,1,1.27,1.27,0,0,1-.349.957,1.387,1.387,0,0,1-1.956-.028l-3.032-2.9-.385-.353-.659.753L27.4,39.652a1.335,1.335,0,1,1-1.842,1.924l-.377-.362a2.17,2.17,0,0,0-.229-2.873,2.206,2.206,0,0,0-1.552-.6c-.073,0-.142.018-.214.026a2.144,2.144,0,0,0-2.421-2.31,2.161,2.161,0,0,0-.657-1.737,2.224,2.224,0,0,0-1.552-.6c-.072,0-.142.017-.213.026a2.163,2.163,0,0,0-.657-1.736,2.205,2.205,0,0,0-1.551-.6,2.152,2.152,0,0,0-1.313.493l-.182-.174a2.782,2.782,0,0,1-.87-1.875,2.448,2.448,0,0,1,.67-1.832L20.393,21.2a2.626,2.626,0,0,1,3.671,0L21.7,23.471A2.167,2.167,0,0,0,23.152,27.2a2.192,2.192,0,0,0,1.548-.6c1.392-1.341,2.112-2.039,2.492-2.41l2.647,2.533,5.424,5.351a.372.372,0,0,0,.079.052A1.427,1.427,0,0,1,35.487,32.684ZM22.645,40.763a1.175,1.175,0,0,1,.784-2.023h.028a1.174,1.174,0,1,1-.812,2.023Zm-2.421-2.311a1.174,1.174,0,1,1,1.659-.039A1.175,1.175,0,0,1,20.224,38.452ZM17.8,36.141a1.174,1.174,0,0,1,.783-2.022h.028a1.174,1.174,0,0,1,.849,1.984h0a1.167,1.167,0,0,1-.821.364A1.181,1.181,0,0,1,17.8,36.141Zm-2.422-2.31a1.175,1.175,0,0,1,.783-2.023h.028a1.174,1.174,0,1,1-.811,2.023ZM1.386,17.492,9.913,8.581,20.966,19.158,12.437,28.07Z"/></svg>