<svg id="Layer_1" data-name="Layer 1" xmlns="http://www.w3.org/2000/svg" viewBox="0 0 50 50"><title>laptop</title><path d="M40.917,12.351H9.083a.5.5,0,0,0-.5.5V33.2a.5.5,0,0,0,.5.5H40.917a.5.5,0,0,0,.5-.5V12.851A.5.5,0,0,0,40.917,12.351Zm-.5,20.352H9.583V13.351H40.417Z"/><path d="M49.138,36.333H45.575V9.22a.5.5,0,0,0-.5-.5H4.925a.5.5,0,0,0-.5.5V36.333H.862a.5.5,0,0,0-.5.5V38.78a2.5,2.5,0,0,0,2.5,2.5H47.138a2.5,2.5,0,0,0,2.5-2.5V36.833A.5.5,0,0,0,49.138,36.333ZM5.425,9.72h39.15V36.333H5.425ZM48.638,38.78a1.5,1.5,0,0,1-1.5,1.5H2.862a1.5,1.5,0,0,1-1.5-1.5V37.333H48.638Z"/></svg>