<svg id="Layer_1" data-name="Layer 1" xmlns="http://www.w3.org/2000/svg" viewBox="0 0 50 50"><title>microscope</title><path d="M37.657,45.561H30.73v-.985a15.154,15.154,0,0,0,1.891-28.433l.882-1.356c.006-.008.016-.011.021-.019s.007-.023.013-.033l2.228-3.427a.5.5,0,0,0-.147-.692L34.2,9.691l1.047-1.61,1.355.881a1.921,1.921,0,1,0,2.094-3.221L30.725.561a1.921,1.921,0,1,0-2.094,3.221l1.354.881-1.046,1.61-1.423-.925a.5.5,0,0,0-.691.146L24.6,8.918c-.009.011-.021.017-.028.028s-.008.025-.015.037L19.07,17.421c-.008.01-.019.016-.027.027s-.008.025-.014.036l-2.62,4.03a.5.5,0,0,0,.146.691l1.867,1.214-1.7,2.62a.5.5,0,0,0,.146.692L20.4,29.026a.5.5,0,0,0,.273.082.515.515,0,0,0,.1-.011.505.505,0,0,0,.316-.217l1.7-2.62,1.867,1.214a.5.5,0,0,0,.272.081.517.517,0,0,0,.1-.011.5.5,0,0,0,.316-.217l2.624-4.036c.006-.008.017-.012.022-.02a.224.224,0,0,0,.014-.036l1.182-1.817a9,9,0,0,1,.295,17.1,3.922,3.922,0,0,0-5.555.127,8.94,8.94,0,0,1-4.575-3.2h1.487a1.675,1.675,0,1,0,0-3.349H9.994a1.675,1.675,0,0,0,0,3.349h2.362a15.222,15.222,0,0,0,10.464,9.28v.84H15.893a.5.5,0,0,0-.5.5V49.25a.5.5,0,0,0,.5.5H37.657a.5.5,0,0,0,.5-.5V46.061A.5.5,0,0,0,37.657,45.561ZM29.176,2.944a.921.921,0,1,1,1-1.545l7.967,5.18a.921.921,0,1,1-1,1.545Zm1.622,2.3,3.581,2.329-1,1.54L29.8,6.788ZM27.39,6.458l7.264,4.724-1.7,2.618L25.688,9.077ZM20.522,27.916l-2.693-1.751,1.4-2.16,2.693,1.751Zm4.262-1.553L17.52,21.64l2.095-3.223,7.264,4.723Zm2.64-4.061L20.16,17.579l4.983-7.664,7.264,4.723Zm9.1,7.711a10.051,10.051,0,0,0-6.659-9.431l2.344-3.539a14.17,14.17,0,0,1-1.48,26.5V41.378a3.92,3.92,0,0,0-.585-2.041A10.027,10.027,0,0,0,36.525,30.013Zm-9.75,8.41a2.958,2.958,0,0,1,2.955,2.955l.039,4.183H23.82V41.378A2.958,2.958,0,0,1,26.775,38.423ZM9.994,34.441a.675.675,0,0,1,0-1.349h10.85a.675.675,0,1,1,0,1.349ZM13.449,35.5H18.16a9.972,9.972,0,0,0,5.16,3.99,3.9,3.9,0,0,0-.5,1.886v2.307A14.228,14.228,0,0,1,13.449,35.5ZM37.157,48.75H16.393V46.561H37.157Z"/></svg>