<svg data-name="Layer 1" xmlns="http://www.w3.org/2000/svg" viewBox="0 0 50 50"><path d="M43.043 5.363L25.341.383a.492.492 0 00-.269 0L8.525 5a.5.5 0 000 .962l8.949 2.6V7.52l-6.988-2.026 14.72-4.111L40.891 5.8 34.1 7.362v1.026l3.352-.773v5.867a.752.752 0 00-.185 1h-.116v2.436h1.6v-2.433h-.117a.776.776 0 00.117-.392.785.785 0 00-.3-.611V7.527a.476.476 0 00-.027-.136l4.6-1.059a.5.5 0 00.023-.969z"/><path d="M34.1 6.3a.5.5 0 00-.371-.483 30.767 30.767 0 00-7.929-1.04h-.019a30.8 30.8 0 00-7.943 1.042.5.5 0 00-.371.483v5.448a.489.489 0 00.057.226 9.572 9.572 0 001.181 11.471 8.821 8.821 0 00-4.818 2.427.5.5 0 00-.147.4.489.489 0 00.14.285 8.521 8.521 0 00-2.165 5.681v16.71a.5.5 0 00.5.5h27.134a.5.5 0 00.5-.5V32.243a8.53 8.53 0 00-2.106-5.615.481.481 0 00.142-.281.5.5 0 00-.143-.407 8.822 8.822 0 00-2.235-1.63 8.819 8.819 0 00-2.647-.862 9.576 9.576 0 001.181-11.471.5.5 0 00.057-.226V6.3zm-2.746 17.216A8.632 8.632 0 0118.6 12.131a33.919 33.919 0 017.063-.781 33.379 33.379 0 017.3.782 8.618 8.618 0 01-1.612 11.384zM18.981 48.453v-4.231l.221.178a.5.5 0 00.628 0l2.67-2.152a.5.5 0 00.186-.39V32.47l2.681 1.79a.5.5 0 00.549.005l3.046-1.959v9.552a.5.5 0 00.187.39l2.662 2.152a.5.5 0 00.628 0l.22-.178v4.231zm-1.632-19.546l4.333 2.893v9.82l-2.166 1.748-2.167-1.748zm14.776 14.461l-2.167-1.748v-9.957l4.334-2.785V41.62zm-6.479-10.121l-10.6-7.078a7.837 7.837 0 014.295-1.8l6.053 3.5a.5.5 0 00.5 0L29.5 25.8a9.647 9.647 0 002.108-1.218l.392-.228a7.833 7.833 0 014.572 1.868zm-.046-6.408h.094l-.044.025zm-12.881 5.4a7.538 7.538 0 011.983-5.1l1.648 1.1v13.619a.5.5 0 00.186.39l1.446 1.167v5.038h-5.264zm26.131 16.21h-5.19v-5.034l1.447-1.167a.5.5 0 00.186-.39V28.235l1.621-1.042a7.538 7.538 0 011.936 5.05zM33.1 11.125a34.89 34.89 0 00-14.628 0V6.688a29.824 29.824 0 017.314-.911h.014a29.812 29.812 0 017.3.911z"/></svg>