<svg data-name="Layer 1" xmlns="http://www.w3.org/2000/svg" viewBox="0 0 50 50"><path d="M49.675 16.582l-9.43-9.429a.5.5 0 00-.707 0L28.014 18.677a.489.489 0 00-.126.46 5.347 5.347 0 00-3.063 1.406l-.027-.025a3.768 3.768 0 00-2.752-1.049.491.491 0 00-.028-.688L10.243 7.512a.588.588 0 00-.356-.138.5.5 0 00-.351.154L.317 17.162a.5.5 0 00.016.707l11.774 11.269a.5.5 0 00.346.139h.011a.5.5 0 00.32-.133c0 .053-.01.1-.008.158a3.778 3.778 0 001.177 2.548l.259.248a2.147 2.147 0 00.478 2.456 2.017 2.017 0 001.765.574c0 .072-.018.142-.016.216a2.174 2.174 0 002.172 2.122h.053c.073 0 .142-.018.214-.026a2.093 2.093 0 002.422 2.309 2.158 2.158 0 002.155 2.339h.053a2.154 2.154 0 00.9-.227l.459.439a2.483 2.483 0 001.714.694 2.265 2.265 0 002.25-2.671 2.3 2.3 0 001.946-.68 2.268 2.268 0 00.625-1.7c0-.093-.015-.184-.029-.275a2.8 2.8 0 00.276.017 2.347 2.347 0 001.668-.7 2.269 2.269 0 00.627-1.633 2.429 2.429 0 00-.031-.342 2.292 2.292 0 001.944-.68 2.265 2.265 0 00.625-1.7 2.456 2.456 0 00-.209-.867l.149-.149a4.136 4.136 0 001.188-2.695.49.49 0 00.183.037.5.5 0 00.353-.147l11.529-11.52a.5.5 0 000-.707zM37.8 27.754l-8.723-8.723L39.891 8.214l8.723 8.722zm-2.076 3.157l-.109.107c-2.829-2.792-7.924-7.819-8.032-7.924a.5.5 0 00-.343-.157h-.03a.455.455 0 00-.348.18c-.119.127-1.771 1.724-2.851 2.765a1.2 1.2 0 01-.834.322 1.168 1.168 0 01-.783-2.011l2.762-2.635c.015-.01.076-.057.089-.069.808-.741 2.2-1.694 3.64-1.237L36.53 27.9a3.185 3.185 0 01-.809 3.011zm-.234 1.773a1.277 1.277 0 01-.348.958 1.387 1.387 0 01-1.957-.029l-3.032-2.9-.384-.354-.66.754 3.378 3.232a1.474 1.474 0 01.465 1.034 1.281 1.281 0 01-.35.919 1.423 1.423 0 01-.941.39 1.482 1.482 0 01-1.016-.419l-3.032-2.9-.385-.354-.659.754L29.944 37a1.477 1.477 0 01.463 1 1.27 1.27 0 01-.349.957 1.387 1.387 0 01-1.956-.028l-3.032-2.9-.385-.353-.659.753 3.374 3.223a1.335 1.335 0 11-1.842 1.924l-.377-.362a2.17 2.17 0 00-.229-2.873 2.206 2.206 0 00-1.552-.6c-.073 0-.142.018-.214.026a2.144 2.144 0 00-2.421-2.31 2.161 2.161 0 00-.657-1.737 2.224 2.224 0 00-1.552-.6c-.072 0-.142.017-.213.026a2.163 2.163 0 00-.657-1.736 2.205 2.205 0 00-1.551-.6 2.152 2.152 0 00-1.313.493l-.182-.174a2.782 2.782 0 01-.87-1.875 2.448 2.448 0 01.67-1.832l5.953-6.222a2.626 2.626 0 013.671 0L21.7 23.471a2.167 2.167 0 001.452 3.729 2.192 2.192 0 001.548-.6 581.671 581.671 0 002.492-2.41l2.647 2.533 5.424 5.351a.372.372 0 00.079.052 1.427 1.427 0 01.145.558zm-12.845 8.079a1.175 1.175 0 01.784-2.023h.028a1.174 1.174 0 11-.812 2.023zm-2.421-2.311a1.174 1.174 0 111.659-.039 1.175 1.175 0 01-1.659.039zM17.8 36.141a1.174 1.174 0 01.783-2.022h.028a1.174 1.174 0 01.849 1.984 1.167 1.167 0 01-.821.364 1.181 1.181 0 01-.839-.326zm-2.422-2.31a1.175 1.175 0 01.783-2.023h.028a1.174 1.174 0 11-.811 2.023zM1.386 17.492l8.527-8.911 11.053 10.577-8.529 8.912z"/></svg>