<svg data-name="Layer 1" xmlns="http://www.w3.org/2000/svg" viewBox="0 0 50 50"><path d="M40.917 12.351H9.083a.5.5 0 00-.5.5V33.2a.5.5 0 00.5.5h31.834a.5.5 0 00.5-.5V12.851a.5.5 0 00-.5-.5zm-.5 20.352H9.583V13.351h30.834z"/><path d="M49.138 36.333h-3.563V9.22a.5.5 0 00-.5-.5H4.925a.5.5 0 00-.5.5v27.113H.862a.5.5 0 00-.5.5v1.947a2.5 2.5 0 002.5 2.5h44.276a2.5 2.5 0 002.5-2.5v-1.947a.5.5 0 00-.5-.5zM5.425 9.72h39.15v26.613H5.425zm43.213 29.06a1.5 1.5 0 01-1.5 1.5H2.862a1.5 1.5 0 01-1.5-1.5v-1.447h47.276z"/></svg>