<svg data-name="Layer 1" xmlns="http://www.w3.org/2000/svg" viewBox="0 0 50 50"><path d="M48.494 7.116a.5.5 0 00-.233-.3L37.791.767a.5.5 0 00-.683.183L26.91 18.613a13.99 13.99 0 00-3.82 0L12.892.95a.5.5 0 00-.683-.183L1.739 6.812a.5.5 0 00-.183.683L12.02 25.621a15.409 15.409 0 1025.96 0L48.444 7.5a.5.5 0 00.05-.384zM25 48.3a14.409 14.409 0 1114.409-14.409A14.426 14.426 0 0125 48.3zM12.276 1.884l9.753 16.892a15.3 15.3 0 00-4.979 1.94l-4.71-8.159a.5.5 0 10-.866.5l4.733 8.2a15.522 15.522 0 00-3.556 3.458L2.672 7.428zM33.857 21.3l4.761-8.246a.5.5 0 00-.867-.5l-4.734 8.2a15.3 15.3 0 00-5.046-1.981l9.753-16.889 9.6 5.544-9.975 17.285a15.542 15.542 0 00-3.492-3.413z"/><path d="M25 21.485a12.406 12.406 0 1012.406 12.406A12.42 12.42 0 0025 21.485zM25 45.3a11.406 11.406 0 1111.406-11.409A11.419 11.419 0 0125 45.3z"/><path d="M33.085 32.071a.5.5 0 00-.4-.344l-4.992-.762-2.2-4.545a.5.5 0 00-.447-.282.5.5 0 00-.447.275l-2.268 4.512-5 .69a.5.5 0 00-.283.851l3.59 3.55-.89 4.971a.5.5 0 00.722.533l4.479-2.32 4.451 2.385a.5.5 0 00.236.059.5.5 0 00.493-.581l-.817-4.983 3.642-3.5a.5.5 0 00.131-.509zm-4.654 3.47a.5.5 0 00-.147.442l.7 4.242-3.796-2.025a.5.5 0 00-.465 0L20.9 40.166l.758-4.232a.5.5 0 00-.14-.443l-3.058-3.024 4.26-.587a.5.5 0 00.378-.271l1.931-3.841 1.874 3.869a.5.5 0 00.375.276l4.25.65z"/></svg>